{"glyphs":{":":{"x_min":0,"x_max":297,"ha":297,"o":"m 112 400 l 135 508 l 243 508 l 220 400 z m 27 0 l 50 108 l 158 108 l 135 0 z"},"$":{"x_min":0,"x_max":549,"ha":549,"o":"m 233 60 l 246 60 q 305 60 342 95 q 378 130 378 187 q 378 228 356 253 q 335 278 284 297 z m 258 406 l 305 624 l 301 624 q 246 624 212 590 q 178 555 178 499 q 178 465 197 443 q 216 421 258 406 z m 147 -97 l 166 -12 q 87 7 47 58 q 7 110 7 191 l 7 203 l 94 203 q 95 143 117 108 q 139 74 183 66 l 238 316 q 157 346 121 391 q 85 435 85 505 q 85 588 148 644 q 212 699 311 699 l 322 699 l 333 755 l 384 755 l 371 695 q 445 683 483 638 q 521 594 521 520 l 521 506 l 437 506 q 435 557 415 584 q 395 611 354 620 l 304 387 q 397 353 435 311 q 473 270 473 203 q 473 102 404 42 q 335 -17 216 -18 l 199 -97 z"},"?":{"x_min":0,"x_max":525,"ha":525,"o":"m 127 0 l 149 104 l 250 104 l 229 0 z m 166 183 q 170 239 193 280 q 215 322 261 355 q 278 367 317 393 q 355 419 368 432 q 391 457 402 482 q 413 508 413 538 q 413 588 382 617 q 351 645 295 645 q 235 645 199 607 q 162 568 154 497 l 67 497 q 74 603 135 663 q 196 723 298 723 q 394 723 451 674 q 508 624 508 541 q 508 482 480 435 q 452 388 390 345 q 375 334 345 316 q 292 283 277 263 q 267 250 260 231 q 253 211 249 183 z"},"<":{"x_min":0,"x_max":833,"ha":833,"o":"m 704 491 l 231 298 l 704 106 l 704 31 l 129 267 l 129 330 l 704 566 z"},"'":{"x_min":0,"x_max":155,"ha":155,"o":"m 112 701 l 112 430 l 44 430 l 44 701 z"},"=":{"x_min":0,"x_max":833,"ha":833,"o":"m 709 235 l 709 167 l 124 167 l 124 235 z m 709 429 l 709 361 l 124 361 l 124 429 z"},"a":{"x_min":0,"x_max":528,"ha":528,"o":"m 347 263 q 308 249 242 244 q 177 239 157 234 q 119 225 101 203 q 82 181 82 144 q 82 105 105 83 q 129 60 169 60 q 245 60 290 112 q 335 164 347 263 z m 320 59 q 285 21 244 3 q 203 -16 154 -16 q 78 -16 35 26 q -8 69 -8 144 q -8 228 45 268 q 99 308 225 316 q 228 316 232 316 q 374 326 374 395 q 374 429 350 445 q 327 461 275 461 q 202 461 174 442 q 146 423 134 371 l 47 371 q 61 454 117 495 q 174 536 275 536 q 366 536 416 504 q 465 472 465 414 q 465 408 463 395 q 461 382 455 352 l 407 130 q 404 119 403 108 q 402 98 402 87 q 402 73 411 65 q 420 58 438 58 q 443 58 449 59 q 454 60 460 61 l 447 0 q 435 -3 422 -4 q 409 -6 391 -6 q 356 -6 338 10 q 320 27 320 59 z"},"L":{"x_min":0,"x_max":556,"ha":556,"o":"m 4 0 l 156 719 l 251 719 l 118 89 l 491 89 l 472 0 z"},"3":{"x_min":0,"x_max":549,"ha":549,"o":"m 17 227 l 109 227 q 107 216 106 204 q 105 192 105 179 q 105 121 135 90 q 166 60 225 60 q 297 60 339 103 q 382 146 382 218 q 382 268 348 295 q 313 322 250 322 q 239 322 234 322 q 229 321 224 321 l 240 395 q 246 395 252 394 q 259 394 271 394 q 344 394 384 426 q 423 458 423 517 q 423 565 392 593 q 362 621 309 621 q 249 621 214 587 q 180 552 169 483 l 78 483 q 92 587 153 643 q 214 699 313 699 q 405 699 460 651 q 514 603 514 521 q 514 462 485 420 q 456 377 400 353 q 438 330 456 295 q 475 260 475 214 q 475 111 405 45 q 335 -20 225 -20 q 125 -20 69 31 q 14 81 14 172 q 14 185 15 198 q 16 212 17 227 z"},";":{"x_min":0,"x_max":297,"ha":297,"o":"m 111 400 l 134 508 l 242 508 l 220 400 z m -7 -155 l 4 -107 q 34 -97 52 -71 q 71 -45 79 0 l 26 0 l 48 107 l 157 107 l 134 0 q 120 -68 85 -106 q 50 -145 -7 -155 z"},"J":{"x_min":0,"x_max":494,"ha":494,"o":"m -12 234 l 82 234 q 75 208 72 186 q 69 165 69 148 q 69 108 90 87 q 111 66 152 66 q 208 66 239 101 q 269 137 291 239 l 393 719 l 489 719 l 378 201 q 353 83 300 31 q 246 -21 151 -21 q 69 -21 23 22 q -23 64 -23 140 q -23 159 -20 183 q -18 207 -12 234 z"},"V":{"x_min":0,"x_max":553,"ha":553,"o":"m 165 0 l 44 719 l 138 719 l 232 122 l 518 719 l 616 719 l 265 0 z"},"\"":{"x_min":0,"x_max":300,"ha":300,"o":"m 256 701 l 256 430 l 188 430 l 188 701 z m 112 701 l 112 430 l 44 430 l 44 701 z"},"7":{"x_min":0,"x_max":549,"ha":549,"o":"m 89 0 q 107 140 191 284 q 274 428 436 598 l 75 598 l 93 679 l 556 679 l 541 605 q 378 435 293 288 q 208 140 190 0 z"},"S":{"x_min":0,"x_max":597,"ha":597,"o":"m 5 223 l 95 223 l 95 210 q 95 141 137 103 q 180 64 255 64 q 329 64 372 101 q 416 137 416 198 q 416 267 283 323 l 283 323 q 160 375 124 417 q 89 459 89 530 q 89 624 157 681 q 226 738 338 738 q 451 738 512 681 q 574 625 574 522 l 574 513 l 481 513 l 481 516 q 481 586 444 622 q 406 658 332 658 q 264 658 223 625 q 183 592 183 536 q 183 473 302 421 q 321 413 332 408 q 440 360 478 317 q 515 274 515 209 q 515 102 443 41 q 370 -21 244 -21 q 134 -21 69 40 q 4 101 4 204 q 4 207 4 214 q 5 220 5 223 z"},"}":{"x_min":0,"x_max":500,"ha":500,"o":"m 281 546 l 281 426 q 281 354 307 324 q 333 295 397 295 q 400 295 408 295 q 415 296 419 296 l 419 223 q 416 223 408 224 q 401 224 398 224 q 333 224 307 195 q 281 165 281 92 l 281 -28 q 281 -100 270 -131 q 259 -162 232 -178 q 211 -191 182 -197 q 152 -202 99 -202 l 78 -202 l 78 -130 l 97 -130 q 156 -130 176 -108 q 197 -86 197 -17 l 197 100 q 197 178 219 211 q 240 245 295 259 q 240 273 219 307 q 197 340 197 418 l 197 536 q 197 604 176 626 q 156 648 97 648 l 78 648 l 78 721 l 96 721 q 148 721 180 715 q 211 709 232 696 q 259 679 270 649 q 281 618 281 546 z"},"Z":{"x_min":0,"x_max":574,"ha":574,"o":"m -20 0 l -2 85 l 456 634 l 100 634 l 119 719 l 589 719 l 572 634 l 116 86 l 491 86 l 472 0 z"},"x":{"x_min":0,"x_max":442,"ha":442,"o":"m -72 0 l 154 272 l 27 523 l 125 523 l 213 337 l 363 523 l 466 523 l 252 263 l 380 0 l 284 0 l 192 194 l 33 0 z"},")":{"x_min":0,"x_max":336,"ha":336,"o":"m 148 719 q 190 621 212 527 q 233 433 233 342 q 233 195 168 59 q 104 -77 -31 -213 l -99 -213 q 29 -60 88 85 q 147 231 147 395 q 147 473 134 554 q 121 634 94 719 z"},"&":{"x_min":0,"x_max":665,"ha":665,"o":"m 250 358 q 167 317 135 280 q 102 242 102 191 q 102 133 137 97 q 173 61 231 61 q 271 61 310 77 q 349 93 387 125 z m 459 0 l 425 57 q 377 19 326 -1 q 274 -20 219 -20 q 129 -20 71 37 q 12 94 12 182 q 12 261 60 319 q 108 377 212 424 l 194 459 q 172 500 163 527 q 155 554 155 579 q 155 645 202 686 q 249 726 326 726 q 397 726 439 687 q 481 647 481 581 q 481 523 445 478 q 408 433 329 392 l 449 191 q 471 220 485 252 q 499 285 505 322 l 587 322 q 580 260 556 210 q 532 159 492 119 l 563 0 z m 290 458 q 347 488 371 517 q 396 545 396 580 q 396 616 376 635 q 356 654 318 654 q 282 654 262 634 q 241 613 241 578 q 241 563 248 544 q 254 524 266 502 z"},"_":{"x_min":0,"x_max":500,"ha":500,"o":"m 500 -166 l 500 -236 l 0 -236 l 0 -166 z"},"v":{"x_min":0,"x_max":462,"ha":462,"o":"m 105 0 l 23 523 l 108 523 l 169 93 l 388 523 l 484 523 l 202 0 z"},"O":{"x_min":0,"x_max":767,"ha":767,"o":"m 423 654 q 366 654 316 629 q 266 604 228 558 q 186 505 161 433 q 137 360 137 287 q 137 183 191 123 q 245 64 340 64 q 394 64 443 86 q 491 109 528 151 q 575 206 600 280 q 626 354 626 437 q 626 537 571 595 q 516 654 423 654 z m 39 285 q 39 375 71 462 q 102 548 159 615 q 210 675 280 706 q 350 738 432 738 q 569 738 647 656 q 725 573 725 429 q 725 338 693 252 q 661 166 602 98 q 553 41 483 10 q 413 -20 332 -20 q 196 -20 117 62 q 39 144 39 285 z"},"(":{"x_min":0,"x_max":336,"ha":336,"o":"m 150 -213 q 107 -114 85 -20 q 64 73 64 163 q 64 310 129 445 q 194 581 329 718 l 397 718 q 268 564 209 419 q 151 274 151 111 q 151 33 164 -48 q 177 -128 204 -213 z"},"C":{"x_min":0,"x_max":707,"ha":707,"o":"m 556 256 l 648 256 q 620 127 532 53 q 444 -22 321 -22 q 189 -22 116 60 q 43 142 43 288 q 43 373 68 451 q 92 528 139 592 q 190 662 261 698 q 332 734 418 734 q 539 734 608 667 q 677 601 684 479 l 588 479 q 584 559 537 603 q 490 647 408 647 q 346 647 297 619 q 248 591 212 536 q 176 481 158 418 q 140 356 140 289 q 140 178 189 119 q 239 61 333 61 q 410 61 466 110 q 522 159 556 256 z"},"W":{"x_min":0,"x_max":831,"ha":831,"o":"m 120 0 l 67 719 l 156 719 l 195 166 l 416 719 l 511 719 l 566 159 l 784 719 l 876 719 l 595 0 l 499 0 l 442 572 l 216 0 z"},"A":{"x_min":0,"x_max":604,"ha":604,"o":"m 182 287 l 411 287 l 359 620 z m -73 0 l 314 719 l 434 719 l 554 0 l 457 0 l 425 203 l 138 203 l 31 0 z"},"f":{"x_min":0,"x_max":266,"ha":266,"o":"m 7 0 l 98 451 l 26 451 l 40 523 l 112 523 l 129 605 q 141 668 172 695 q 202 722 261 722 q 273 722 287 721 q 302 720 321 717 l 306 638 q 297 640 287 641 q 276 642 265 642 q 226 642 213 583 q 211 578 211 575 l 199 523 l 288 523 l 274 451 l 184 451 l 93 0 z"},"Q":{"x_min":0,"x_max":767,"ha":767,"o":"m 342 134 l 401 187 l 477 104 q 547 152 586 237 q 625 321 625 424 q 625 531 571 591 q 517 652 421 652 q 364 652 314 627 q 264 603 226 556 q 183 502 159 429 q 135 356 135 280 q 135 176 186 119 q 237 63 331 63 q 343 63 360 65 q 377 67 400 71 z m 553 -96 l 462 3 q 426 -9 395 -14 q 364 -20 338 -20 q 194 -20 116 59 q 38 138 38 283 q 38 374 69 461 q 101 548 157 614 q 208 674 278 706 q 349 738 429 738 q 567 738 646 654 q 724 570 724 423 q 724 304 675 204 q 626 104 536 40 l 612 -43 z"},"w":{"x_min":0,"x_max":735,"ha":735,"o":"m 94 0 l 27 523 l 112 523 l 159 113 l 340 523 l 437 523 l 459 108 l 665 523 l 760 523 l 480 0 l 390 0 l 367 400 l 183 0 z"},"-":{"x_min":0,"x_max":312,"ha":312,"o":"m 9 225 l 27 304 l 268 304 l 250 225 z"},"E":{"x_min":0,"x_max":588,"ha":588,"o":"m 2 0 l 154 719 l 589 719 l 570 631 l 230 631 l 184 413 l 513 413 l 495 328 l 166 328 l 114 88 l 481 88 l 462 0 z"},"s":{"x_min":0,"x_max":492,"ha":492,"o":"m -9 183 l 74 183 q 74 180 73 176 q 73 172 73 165 q 73 110 108 82 q 143 54 211 54 q 261 54 290 76 q 319 97 319 134 q 319 159 304 176 q 290 193 229 221 q 220 226 202 233 q 57 301 57 386 q 57 455 109 497 q 162 539 249 539 q 340 539 390 493 q 441 448 441 366 l 441 355 l 360 355 l 360 358 q 360 411 331 438 q 303 465 246 465 q 198 465 171 446 q 143 427 143 395 q 143 356 230 316 l 235 314 q 349 262 378 229 q 407 197 407 147 q 407 72 350 27 q 293 -18 197 -18 q 101 -18 46 31 q -10 79 -10 163 q -10 171 -10 175 q -9 180 -9 183 z"},">":{"x_min":0,"x_max":833,"ha":833,"o":"m 704 330 l 704 267 l 129 31 l 129 106 l 603 298 l 129 491 l 129 566 z"},"l":{"x_min":0,"x_max":231,"ha":231,"o":"m 0 0 l 153 719 l 240 719 l 88 0 z"},"8":{"x_min":0,"x_max":549,"ha":549,"o":"m 263 328 q 197 328 155 286 q 113 243 113 176 q 113 118 144 88 q 175 57 234 57 q 299 57 342 103 q 384 148 384 217 q 384 269 352 299 q 320 328 263 328 z m 311 620 q 251 620 216 588 q 180 556 180 503 q 180 455 209 428 q 239 402 292 402 q 349 402 385 435 q 421 468 421 519 q 421 565 391 593 q 361 620 311 620 z m 159 375 q 125 396 107 427 q 90 458 90 499 q 90 584 153 640 q 216 696 313 696 q 403 696 458 649 q 512 603 512 526 q 512 470 483 428 q 454 386 401 364 q 439 339 459 303 q 478 266 478 219 q 478 116 408 49 q 337 -18 228 -18 q 130 -18 75 32 q 19 83 19 171 q 19 242 54 293 q 90 345 159 375 z"},"\\":{"x_min":0,"x_max":301,"ha":301,"o":"m 153 -93 l 87 738 l 145 738 l 213 -93 z"},"e":{"x_min":0,"x_max":554,"ha":554,"o":"m 122 308 l 409 308 q 410 312 410 317 q 410 322 410 331 q 410 393 378 428 q 346 463 291 463 q 228 463 184 423 q 140 382 122 308 z m 474 171 q 456 83 390 33 q 325 -17 230 -17 q 127 -17 72 42 q 17 101 17 211 q 17 356 94 448 q 170 540 291 540 q 388 540 446 483 q 503 425 503 328 q 503 310 501 287 q 499 265 495 237 l 108 237 q 108 236 108 234 q 106 213 106 204 q 106 133 141 96 q 176 59 242 59 q 295 59 333 89 q 372 119 385 171 z"},"b":{"x_min":0,"x_max":590,"ha":590,"o":"m -3 1 l 151 719 l 236 719 l 184 464 q 215 500 256 520 q 297 539 344 539 q 436 539 489 482 q 542 425 542 326 q 542 262 521 197 q 500 132 462 81 q 428 35 379 10 q 330 -15 273 -15 q 210 -15 166 10 q 122 36 99 85 l 80 1 z m 319 461 q 280 461 248 444 q 216 427 191 394 q 163 355 146 304 q 129 252 129 201 q 129 135 163 98 q 197 62 258 62 q 339 62 394 137 q 448 212 448 323 q 448 389 414 425 q 380 461 319 461 z"},"%":{"x_min":0,"x_max":845,"ha":845,"o":"m 536 174 q 536 131 565 102 q 594 73 636 73 q 677 73 707 103 q 736 132 736 174 q 736 216 707 245 q 678 274 636 274 q 594 274 565 245 q 536 216 536 174 z m 463 174 q 463 247 513 297 q 563 347 636 347 q 708 347 759 296 q 810 246 810 174 q 810 102 759 51 q 708 0 636 0 q 563 0 513 51 q 463 101 463 174 z m 108 506 q 108 463 137 435 q 166 406 208 406 q 250 406 279 435 q 308 464 308 506 q 308 548 279 577 q 250 606 208 606 q 166 606 137 577 q 108 548 108 506 z m 35 506 q 35 579 85 629 q 135 679 208 679 q 280 679 330 628 q 381 578 381 506 q 381 434 330 383 q 280 332 208 332 q 135 332 85 383 q 35 433 35 506 z m 178 -20 l 606 699 l 667 699 l 239 -20 z"},"m":{"x_min":0,"x_max":829,"ha":829,"o":"m -7 0 l 103 523 l 186 523 l 166 435 q 206 484 250 507 q 294 530 347 530 q 403 530 432 506 q 461 483 462 436 q 505 484 549 508 q 593 531 641 531 q 705 531 740 500 q 776 470 776 417 q 776 407 774 393 q 772 379 769 362 l 691 0 l 598 0 l 680 372 q 682 381 683 388 q 684 396 684 402 q 684 427 667 439 q 651 452 618 452 q 561 452 512 406 q 463 360 448 289 l 385 0 l 295 0 l 375 376 q 377 384 378 391 q 379 399 379 405 q 379 427 364 440 q 349 452 322 452 q 260 452 211 409 q 162 366 147 298 l 81 0 z"},"#":{"x_min":0,"x_max":769,"ha":769,"o":"m 473 419 l 346 419 l 301 290 l 428 290 z m 451 712 l 372 490 l 497 490 l 577 712 l 657 712 l 579 490 l 726 490 l 701 419 l 553 419 l 508 291 l 665 291 l 640 219 l 483 219 l 404 -2 l 323 -2 l 402 219 l 276 219 l 197 -2 l 116 -2 l 194 219 l 43 219 l 69 291 l 220 291 l 265 419 l 104 419 l 129 490 l 291 490 l 370 712 z"},",":{"x_min":0,"x_max":274,"ha":274,"o":"m -13 -155 l -3 -107 q 27 -97 45 -71 q 63 -45 72 0 l 20 0 l 42 107 l 150 107 l 128 0 q 114 -68 79 -106 q 44 -145 -13 -155 z"},"n":{"x_min":0,"x_max":552,"ha":552,"o":"m -7 0 l 104 523 l 184 523 l 167 445 q 210 489 258 511 q 305 532 358 532 q 427 532 463 503 q 499 475 499 419 q 499 406 497 390 q 495 374 490 354 l 416 0 l 327 0 l 400 341 q 404 360 406 374 q 407 387 407 399 q 407 427 387 443 q 366 458 329 458 q 254 458 205 408 q 156 358 136 262 l 81 0 z"},"h":{"x_min":0,"x_max":557,"ha":557,"o":"m -3 0 l 150 719 l 237 719 l 180 450 q 220 491 266 512 q 312 532 364 532 q 434 532 469 503 q 504 475 504 418 q 504 404 502 387 q 500 371 496 354 l 421 0 l 332 0 l 405 341 q 409 360 411 375 q 413 390 413 403 q 413 428 392 443 q 370 458 334 458 q 259 458 210 408 q 161 358 141 262 l 86 0 z"},"z":{"x_min":0,"x_max":446,"ha":446,"o":"m -42 0 l -27 69 l 313 446 l 39 446 l 54 523 l 449 523 l 434 459 l 89 78 l 385 78 l 368 0 z"},"B":{"x_min":0,"x_max":672,"ha":672,"o":"m 112 85 l 287 85 q 365 85 394 90 q 422 95 442 107 q 471 125 488 157 q 505 189 505 227 q 505 284 471 307 q 438 331 354 331 l 164 331 z m 182 411 l 349 411 q 446 411 490 441 q 535 471 535 536 q 535 589 506 612 q 477 635 405 635 l 229 635 z m 2 0 l 154 719 l 422 719 q 525 719 578 675 q 631 631 631 545 q 631 481 600 438 q 569 394 511 374 q 558 353 580 317 q 603 280 603 227 q 603 189 592 155 q 581 120 560 91 q 526 42 477 21 q 427 0 344 0 z"},"K":{"x_min":0,"x_max":618,"ha":618,"o":"m 4 0 l 158 719 l 252 719 l 176 356 l 552 719 l 673 719 l 362 423 l 578 0 l 478 0 l 294 361 l 148 227 l 99 0 z"},"R":{"x_min":0,"x_max":662,"ha":662,"o":"m 181 396 l 355 396 q 439 396 483 431 q 528 467 528 534 q 528 584 496 610 q 464 635 400 635 l 231 635 z m 2 0 l 156 719 l 402 719 q 462 719 493 712 q 525 705 550 688 q 585 665 604 627 q 623 589 623 541 q 623 469 590 419 q 557 369 494 346 q 523 331 536 307 q 548 283 548 240 q 548 227 548 219 q 547 212 547 206 l 543 134 q 542 119 542 108 q 541 98 541 89 q 541 58 546 43 q 550 28 561 19 l 561 0 l 447 0 q 442 13 440 26 q 438 39 438 53 q 438 62 439 76 q 439 90 441 109 l 447 190 q 447 195 448 201 q 448 207 448 217 q 448 272 422 292 q 396 312 317 312 l 163 312 l 95 0 z"},"T":{"x_min":0,"x_max":541,"ha":541,"o":"m 150 0 l 285 637 l 66 637 l 83 719 l 598 719 l 580 637 l 381 637 l 246 0 z"},"P":{"x_min":0,"x_max":615,"ha":615,"o":"m 180 384 l 322 384 q 415 384 458 419 q 501 454 501 529 q 501 585 472 611 q 442 637 378 637 l 234 637 z m 2 0 l 155 719 l 394 719 q 492 719 544 671 q 595 623 595 531 q 595 417 524 359 q 454 301 315 301 l 162 301 l 97 0 z"},"|":{"x_min":0,"x_max":500,"ha":500,"o":"m 287 764 l 287 -236 l 214 -236 l 214 764 z"},"t":{"x_min":0,"x_max":265,"ha":265,"o":"m 188 0 q 169 -5 154 -8 q 138 -11 127 -11 q 72 -11 44 10 q 17 31 17 73 q 17 83 19 98 q 21 113 26 137 l 93 451 l 17 451 l 33 523 l 108 523 l 138 665 l 226 665 l 196 523 l 286 523 l 271 451 l 180 451 l 112 128 q 109 116 107 106 q 106 97 106 91 q 106 77 116 69 q 127 61 146 61 q 159 61 172 62 q 186 64 202 67 z"},"M":{"x_min":0,"x_max":843,"ha":843,"o":"m 2 0 l 154 719 l 292 719 l 371 125 l 697 719 l 841 719 l 688 0 l 598 0 l 715 549 q 720 572 726 589 q 731 607 738 622 l 394 0 l 302 0 l 217 631 l 217 620 q 217 608 216 595 q 214 583 212 568 l 94 0 z"},"g":{"x_min":0,"x_max":588,"ha":588,"o":"m 294 464 q 212 464 162 393 q 111 322 111 207 q 111 140 144 104 q 176 67 236 67 q 320 67 371 139 q 423 211 423 329 q 423 392 389 428 q 354 464 294 464 z m -9 -52 l 78 -52 l 78 -60 q 78 -97 109 -118 q 141 -140 194 -140 q 277 -140 315 -99 q 354 -57 375 60 q 346 26 307 9 q 269 -8 222 -8 q 126 -8 73 51 q 19 109 19 215 q 19 355 97 448 q 175 540 291 540 q 351 540 391 514 q 432 488 454 437 l 473 523 l 558 523 l 447 -9 q 424 -116 362 -167 q 300 -217 191 -217 q 97 -217 44 -174 q -9 -131 -9 -54 z"},"j":{"x_min":0,"x_max":235,"ha":235,"o":"m 135 615 l 157 719 l 244 719 l 222 615 z m -93 -206 l -80 -128 q -77 -128 -73 -129 q -70 -129 -63 -129 q -40 -129 -30 -120 q -20 -110 -14 -84 l 115 523 l 203 523 l 72 -94 q 59 -157 29 -183 q 0 -209 -56 -209 q -64 -209 -74 -208 q -83 -208 -93 -206 z"},"i":{"x_min":0,"x_max":231,"ha":231,"o":"m 127 614 l 149 719 l 236 719 l 214 614 z m -4 0 l 106 523 l 194 523 l 83 0 z"},"y":{"x_min":0,"x_max":462,"ha":462,"o":"m 108 -27 l 22 523 l 116 523 l 173 83 l 390 523 l 487 523 l 147 -126 q 122 -173 89 -194 q 56 -215 6 -215 q -3 -215 -15 -213 q -27 -210 -41 -206 l -22 -128 q -14 -131 -5 -132 q 3 -134 12 -134 q 29 -134 43 -126 q 56 -118 65 -102 z"},"@":{"x_min":0,"x_max":1000,"ha":1000,"o":"m 627 417 l 655 473 l 719 473 l 648 192 q 646 184 645 177 q 644 169 644 163 q 644 141 656 129 q 669 117 693 117 q 716 117 743 130 q 770 143 795 167 q 834 204 856 258 q 878 312 878 372 q 878 499 785 577 q 692 656 541 656 q 476 656 421 642 q 366 628 318 600 q 225 544 173 454 q 122 363 122 254 q 122 167 152 104 q 182 40 246 -9 q 295 -46 362 -67 q 428 -87 502 -87 q 584 -87 662 -63 q 740 -39 805 6 l 832 -34 q 760 -88 678 -116 q 597 -143 508 -143 q 415 -143 338 -120 q 261 -97 201 -52 q 126 6 89 82 q 52 158 52 255 q 52 335 77 408 q 103 480 151 539 q 222 626 323 671 q 423 716 545 716 q 625 716 696 694 q 768 672 820 632 q 883 583 916 519 q 949 455 949 381 q 949 295 918 227 q 887 159 828 112 q 795 85 755 71 q 715 57 674 57 q 625 57 601 76 q 576 96 576 134 l 576 143 q 549 100 513 79 q 477 58 429 58 q 354 58 315 100 q 276 141 276 220 q 276 335 343 413 q 411 490 509 490 q 550 490 580 472 q 609 454 627 417 z m 581 232 l 610 347 q 602 390 576 414 q 551 437 513 437 q 446 437 400 374 q 354 310 354 218 q 354 167 378 139 q 401 111 445 111 q 492 111 530 145 q 568 178 581 232 z"},".":{"x_min":0,"x_max":274,"ha":274,"o":"m 15 0 l 38 108 l 146 108 l 124 0 z"},"p":{"x_min":0,"x_max":590,"ha":590,"o":"m 322 462 q 242 462 187 385 q 131 309 131 197 q 131 131 163 95 q 196 59 254 59 q 333 59 387 135 q 442 211 442 325 q 442 390 410 426 q 378 462 322 462 z m -42 -209 l 105 523 l 186 523 l 171 448 q 206 492 248 513 q 290 535 340 535 q 431 535 482 478 q 533 420 533 318 q 533 251 513 189 q 492 128 454 80 q 417 33 368 9 q 320 -16 265 -16 q 211 -16 170 7 q 129 31 100 78 l 41 -209 z"},"X":{"x_min":0,"x_max":523,"ha":523,"o":"m -54 0 l 213 368 l 46 719 l 147 719 l 273 444 l 464 719 l 574 719 l 314 360 l 484 0 l 383 0 l 253 284 l 55 0 z"},"*":{"x_min":0,"x_max":500,"ha":500,"o":"m 284 464 l 199 341 l 131 386 l 227 506 l 87 544 l 113 621 l 247 575 l 247 719 l 321 719 l 321 575 l 455 621 l 482 544 l 341 506 l 437 387 l 371 338 z"},"Y":{"x_min":0,"x_max":515,"ha":515,"o":"m 135 0 l 196 298 l 34 719 l 134 719 l 258 386 l 480 719 l 589 719 l 289 283 l 231 0 z"},"c":{"x_min":0,"x_max":556,"ha":556,"o":"m 389 194 l 476 194 q 455 98 387 40 q 319 -17 226 -17 q 123 -17 71 42 q 18 100 18 215 q 18 282 40 341 q 61 400 103 448 q 143 493 194 516 q 245 539 305 539 q 399 539 451 489 q 502 439 505 347 l 416 347 q 416 401 385 432 q 353 463 298 463 q 222 463 167 389 q 111 315 111 210 q 111 140 143 102 q 174 65 234 65 q 286 65 328 99 q 369 134 389 194 z"},"!":{"x_min":0,"x_max":321,"ha":321,"o":"m 95 182 l 186 719 l 285 719 l 150 182 z m 35 0 l 58 109 l 166 109 l 141 0 z"},"/":{"x_min":0,"x_max":301,"ha":301,"o":"m -1 -93 l 240 738 l 302 738 l 59 -93 z"},"[":{"x_min":0,"x_max":354,"ha":354,"o":"m 5 -198 l 198 719 l 369 719 l 358 651 l 269 651 l 100 -134 l 194 -134 l 181 -198 z"},"6":{"x_min":0,"x_max":549,"ha":549,"o":"m 282 385 q 213 385 169 333 q 125 280 125 198 q 125 128 157 91 q 189 53 248 53 q 314 53 359 110 q 404 166 404 251 q 404 314 371 349 q 339 385 282 385 z m 148 395 q 183 428 223 444 q 263 460 310 460 q 396 460 446 406 q 497 352 497 260 q 497 135 427 58 q 356 -19 241 -19 q 142 -19 88 45 q 34 110 34 229 q 34 330 63 427 q 91 524 140 591 q 179 644 234 672 q 289 700 355 700 q 440 700 486 653 q 532 606 532 519 l 532 508 l 444 508 q 444 565 420 593 q 396 621 347 621 q 276 621 227 565 q 177 509 148 395 z"},"r":{"x_min":0,"x_max":326,"ha":326,"o":"m -4 0 l 106 523 l 190 523 l 168 426 q 212 488 245 512 q 278 536 316 536 q 325 536 335 535 q 345 534 356 532 l 334 433 q 333 433 332 433 q 314 435 305 435 q 240 435 199 390 q 157 344 137 251 l 83 0 z"},"2":{"x_min":0,"x_max":549,"ha":549,"o":"m 3 0 q 8 58 27 103 q 46 147 79 182 q 123 228 238 300 l 241 302 l 244 304 q 416 412 416 504 q 416 557 386 588 q 356 618 304 618 q 238 618 201 581 q 165 544 155 467 l 62 467 q 76 581 138 640 q 199 699 303 699 q 398 699 455 647 q 511 594 511 507 q 511 435 472 380 q 434 326 334 263 q 317 252 286 233 q 136 142 111 79 l 457 79 l 441 0 z"},"{":{"x_min":0,"x_max":500,"ha":500,"o":"m 423 648 l 403 648 q 344 648 324 626 q 304 604 304 536 l 304 418 q 304 340 282 307 q 261 273 206 259 q 261 245 283 212 q 304 179 304 100 l 304 -18 q 304 -87 324 -108 q 345 -130 404 -130 l 423 -130 l 423 -202 l 402 -202 q 349 -202 319 -197 q 290 -191 269 -178 q 242 -162 231 -131 q 220 -100 220 -28 l 220 92 q 220 165 194 194 q 167 224 103 224 q 100 224 93 224 q 85 223 82 223 l 82 296 q 86 296 93 295 q 101 295 104 295 q 167 295 194 324 q 220 354 220 426 l 220 546 q 220 618 231 649 q 242 679 269 696 q 291 709 322 715 q 353 721 405 721 l 423 721 z"},"9":{"x_min":0,"x_max":549,"ha":549,"o":"m 299 626 q 232 626 188 570 q 144 514 144 429 q 144 365 176 330 q 208 294 265 294 q 334 294 378 346 q 423 399 423 482 q 423 550 390 588 q 358 626 299 626 z m 104 171 q 104 113 127 86 q 151 58 200 58 q 271 58 321 114 q 371 170 400 284 q 365 251 325 235 q 284 219 237 219 q 151 219 101 273 q 51 328 51 419 q 51 543 122 621 q 192 698 307 698 q 405 698 460 633 q 514 568 514 449 q 514 349 485 251 q 457 154 408 88 q 369 35 314 7 q 259 -21 193 -21 q 107 -21 62 26 q 16 73 16 160 l 16 171 z"}," ":{"x_min":0,"x_max":274,"ha":274,"o":""},"I":{"x_min":0,"x_max":260,"ha":260,"o":"m 4 0 l 156 719 l 256 719 l 103 0 z"},"H":{"x_min":0,"x_max":700,"ha":700,"o":"m 2 0 l 154 719 l 250 719 l 187 424 l 541 424 l 603 719 l 698 719 l 545 0 l 450 0 l 522 340 l 169 340 l 96 0 z"},"4":{"x_min":0,"x_max":549,"ha":549,"o":"m 106 251 l 312 251 l 375 546 z m 258 0 l 295 175 l -2 175 l 16 251 l 414 679 l 491 679 l 400 251 l 500 251 l 484 175 l 383 175 l 346 0 z"},"~":{"x_min":0,"x_max":833,"ha":833,"o":"m 747 300 q 696 265 650 248 q 604 231 557 231 q 512 231 432 259 q 421 263 416 265 l 408 268 q 322 297 275 297 q 234 297 189 279 q 145 261 87 220 l 87 296 q 139 331 186 349 q 232 366 276 366 q 306 366 338 360 q 370 353 418 336 q 426 333 441 328 q 519 300 558 300 q 601 300 646 318 q 690 336 747 376 z"},"D":{"x_min":0,"x_max":713,"ha":713,"o":"m 115 81 l 253 81 q 349 81 398 100 q 447 119 481 164 q 521 215 541 281 q 561 348 561 425 q 561 539 512 588 q 463 637 348 637 l 234 637 z m 2 0 l 156 719 l 361 719 q 520 719 592 648 q 665 576 665 421 q 665 330 641 252 q 616 174 571 118 q 551 92 526 72 q 501 51 472 35 q 438 16 395 8 q 352 0 271 0 z"},"^":{"x_min":0,"x_max":1000,"ha":1000,"o":"m 545 712 l 794 440 l 706 440 l 500 645 l 293 440 l 205 440 l 454 712 z"},"0":{"x_min":0,"x_max":549,"ha":549,"o":"m 321 621 q 281 621 249 596 q 216 571 191 521 q 155 450 135 373 q 116 296 116 223 q 116 141 144 100 q 172 59 229 59 q 267 59 297 82 q 328 104 353 150 q 390 217 410 299 q 431 380 431 457 q 431 539 404 580 q 376 621 321 621 z m 23 239 q 23 336 52 429 q 81 522 134 594 q 171 646 220 672 q 268 699 324 699 q 421 699 473 635 q 526 570 526 450 q 526 360 500 269 q 474 178 426 103 q 387 42 337 11 q 286 -20 226 -20 q 126 -20 75 46 q 23 112 23 239 z"},"F":{"x_min":0,"x_max":539,"ha":539,"o":"m 2 0 l 153 719 l 567 719 l 549 632 l 231 632 l 184 413 l 491 413 l 472 325 l 166 325 l 96 0 z"},"`":{"x_min":0,"x_max":500,"ha":500,"o":"m 372 593 l 319 593 l 172 763 l 270 763 z"},"k":{"x_min":0,"x_max":494,"ha":494,"o":"m -2 0 l 149 719 l 236 719 l 144 289 l 405 523 l 529 523 l 302 327 l 423 0 l 328 0 l 231 266 l 119 169 l 82 0 z"},"u":{"x_min":0,"x_max":552,"ha":552,"o":"m 521 523 l 411 0 l 331 0 l 347 79 q 304 35 257 14 q 209 -8 156 -8 q 86 -8 51 20 q 16 48 16 104 q 16 119 18 135 q 20 152 24 169 l 99 523 l 188 523 l 115 183 l 114 180 q 107 143 107 125 q 107 97 128 81 q 149 65 186 65 q 261 65 310 115 q 359 165 379 261 l 434 523 z"},"]":{"x_min":0,"x_max":354,"ha":354,"o":"m 308 719 l 114 -198 l -56 -198 l -46 -131 l 44 -131 l 212 654 l 119 654 l 131 719 z"},"U":{"x_min":0,"x_max":689,"ha":689,"o":"m 153 719 l 248 719 l 149 250 q 145 232 143 217 q 141 201 141 188 q 141 132 180 101 q 220 70 291 70 q 376 70 424 110 q 472 150 490 238 l 592 719 l 687 719 l 584 233 q 568 159 547 118 q 526 77 491 48 q 452 15 399 -3 q 347 -20 287 -20 q 177 -20 111 35 q 45 90 45 181 q 45 195 48 218 q 52 242 59 278 z"},"o":{"x_min":0,"x_max":574,"ha":574,"o":"m 294 463 q 252 463 219 445 q 186 426 161 389 q 136 352 122 301 q 107 250 107 200 q 107 134 140 98 q 173 62 234 62 q 318 62 372 136 q 426 211 426 328 q 426 394 392 428 q 358 463 294 463 z m 15 207 q 15 353 96 447 q 177 540 303 540 q 403 540 461 480 q 519 421 519 318 q 519 172 438 79 q 357 -14 231 -14 q 128 -14 72 44 q 15 102 15 207 z"},"N":{"x_min":0,"x_max":699,"ha":699,"o":"m 2 0 l 154 719 l 248 719 l 483 152 l 603 719 l 697 719 l 545 0 l 453 0 l 216 563 l 96 0 z"},"+":{"x_min":0,"x_max":833,"ha":833,"o":"m 451 596 l 451 332 l 709 332 l 709 264 l 451 264 l 451 0 l 382 0 l 382 264 l 124 264 l 124 332 l 382 332 l 382 596 z"},"G":{"x_min":0,"x_max":753,"ha":753,"o":"m 548 0 l 554 77 q 509 28 453 4 q 396 -20 328 -20 q 193 -20 119 62 q 44 144 44 291 q 44 385 73 470 q 103 554 157 618 q 208 676 275 707 q 343 737 422 737 q 550 737 623 673 q 695 608 702 489 l 606 489 q 601 567 552 610 q 503 652 419 652 q 356 652 307 625 q 258 599 218 544 q 182 494 161 426 q 141 358 141 287 q 141 180 195 122 q 250 64 349 64 q 438 64 500 124 q 563 184 591 294 l 365 294 l 381 372 l 700 372 l 622 0 z"},"q":{"x_min":0,"x_max":590,"ha":590,"o":"m 238 66 q 276 66 309 83 q 342 101 368 136 q 396 173 413 223 q 429 273 429 320 q 429 392 396 428 q 364 465 300 465 q 258 465 224 446 q 189 427 165 390 q 140 352 125 302 q 111 253 111 204 q 111 138 144 102 q 178 66 238 66 z m 559 523 l 405 -209 l 318 -209 l 374 59 q 340 24 301 6 q 261 -11 214 -11 q 123 -11 70 47 q 17 105 17 205 q 17 270 38 333 q 58 395 96 444 q 133 492 181 517 q 229 542 284 542 q 348 542 391 517 q 435 493 459 443 l 477 523 z"},"d":{"x_min":0,"x_max":590,"ha":590,"o":"m 370 0 l 381 65 q 344 23 302 3 q 260 -17 211 -17 q 118 -17 67 40 q 15 98 15 202 q 15 269 35 330 q 56 391 93 437 q 131 483 182 509 q 233 535 288 535 q 343 535 385 510 q 427 485 455 436 l 513 719 l 598 719 l 449 0 z m 422 320 q 422 385 388 423 q 354 460 296 460 q 216 460 161 384 q 106 309 106 196 q 106 130 138 93 q 170 55 226 55 q 310 55 366 130 q 422 206 422 320 z"},"1":{"x_min":0,"x_max":549,"ha":549,"o":"m 194 0 l 307 528 q 269 517 221 510 q 173 503 114 502 l 128 568 q 227 571 284 603 q 342 634 369 699 l 432 699 l 283 0 z"},"5":{"x_min":0,"x_max":549,"ha":549,"o":"m 21 196 l 107 196 l 107 185 q 107 125 137 93 q 168 61 225 61 q 303 61 349 114 q 396 167 396 257 q 396 323 365 356 q 334 389 272 389 q 224 389 189 370 q 155 351 136 315 l 53 315 l 161 679 l 515 679 l 499 601 l 219 601 l 166 422 q 190 443 222 454 q 254 465 296 465 q 384 465 436 409 q 488 353 488 258 q 488 136 413 58 q 338 -21 222 -21 q 128 -21 74 33 q 21 86 21 181 z"}}}
